HIERARCHY
ROOT Hips
{
    OFFSET   0.000000   0.000000   0.000000
    CHANNELS 6 Xposition Yposition Zposition Zrotation Xrotation Yrotation
    JOINT Chest
    {
        OFFSET   0.000000   8.007230   0.000000
        CHANNELS 3 Zrotation Xrotation Yrotation
        JOINT Chest2
        {
            OFFSET   0.000000  22.077100   0.000000
            CHANNELS 3 Zrotation Xrotation Yrotation
            JOINT Neck
            {
                OFFSET   0.000000  23.254800  -0.000021
                CHANNELS 3 Zrotation Xrotation Yrotation
                JOINT Head
                {
                    OFFSET   0.000000  14.370000   1.956610
                    CHANNELS 3 Zrotation Xrotation Yrotation
                    End Site
                    {
                        OFFSET   0.000000  19.566000   0.000000
                    }
                }
            }
            JOINT LeftCollar
            {
                OFFSET   3.911900  19.017000  -0.467063
                CHANNELS 3 Zrotation Xrotation Yrotation
                JOINT LeftShoulder
                {
                    OFFSET  10.383700   0.000000   0.000000
                    CHANNELS 3 Zrotation Xrotation Yrotation
                    JOINT LeftElbow
                    {
                        OFFSET  26.662100   0.001529   0.000325
                        CHANNELS 3 Zrotation Xrotation Yrotation
                        JOINT LeftWrist
                        {
                            OFFSET  28.869000  -0.000011  -0.000096
                            CHANNELS 3 Zrotation Xrotation Yrotation
                            JOINT LeftFinger0
                            {
                                OFFSET   2.044650  -2.323460   3.252850
                                CHANNELS 3 Zrotation Xrotation Yrotation
                                JOINT LeftFinger01
                                {
                                    OFFSET   3.088130   0.000000   0.000000
                                    CHANNELS 3 Zrotation Xrotation Yrotation
                                    JOINT LeftFinger02
                                    {
                                        OFFSET   2.639460   0.000000   0.000000
                                        CHANNELS 3 Zrotation Xrotation Yrotation
                                        End Site
                                        {
                                            OFFSET   2.582190   0.000000   0.000000
                                        }
                                    }
                                }
                            }
                            JOINT LeftFinger1
                            {
                                OFFSET   8.364480   0.000000   3.252850
                                CHANNELS 3 Zrotation Xrotation Yrotation
                                JOINT LeftFinger11
                                {
                                    OFFSET   4.646930   0.000000   0.000000
                                    CHANNELS 3 Zrotation Xrotation Yrotation
                                    JOINT LeftFinger12
                                    {
                                        OFFSET   2.323460   0.000000   0.000000
                                        CHANNELS 3 Zrotation Xrotation Yrotation
                                        End Site
                                        {
                                            OFFSET   2.273050   0.000000   0.000000
                                        }
                                    }
                                }
                            }
                            JOINT LeftFinger2
                            {
                                OFFSET   8.364480   0.000016   1.078090
                                CHANNELS 3 Zrotation Xrotation Yrotation
                                JOINT LeftFinger21
                                {
                                    OFFSET   5.111620   0.000000   0.000000
                                    CHANNELS 3 Zrotation Xrotation Yrotation
                                    JOINT LeftFinger22
                                    {
                                        OFFSET   2.788160   0.000017   0.000000
                                        CHANNELS 3 Zrotation Xrotation Yrotation
                                        End Site
                                        {
                                            OFFSET   2.727660   0.000000   0.000000
                                        }
                                    }
                                }
                            }
                            JOINT LeftFinger3
                            {
                                OFFSET   7.899780   0.000015  -1.078090
                                CHANNELS 3 Zrotation Xrotation Yrotation
                                JOINT LeftFinger31
                                {
                                    OFFSET   4.646920   0.000000   0.000000
                                    CHANNELS 3 Zrotation Xrotation Yrotation
                                    JOINT LeftFinger32
                                    {
                                        OFFSET   2.323470   0.000000   0.000000
                                        CHANNELS 3 Zrotation Xrotation Yrotation
                                        End Site
                                        {
                                            OFFSET   2.273050   0.000000   0.000000
                                        }
                                    }
                                }
                            }
                            JOINT LeftFinger4
                            {
                                OFFSET   7.435090   0.000000  -3.252850
                                CHANNELS 3 Zrotation Xrotation Yrotation
                                JOINT LeftFinger41
                                {
                                    OFFSET   3.717550   0.000000   0.000000
                                    CHANNELS 3 Zrotation Xrotation Yrotation
                                    JOINT LeftFinger42
                                    {
                                        OFFSET   1.858760   0.000000   0.000000
                                        CHANNELS 3 Zrotation Xrotation Yrotation
                                        End Site
                                        {
                                            OFFSET   1.818440   0.000000   0.000000
                                        }
                                    }
                                }
                            }
                        }
                    }
                }
            }
            JOINT RightCollar
            {
                OFFSET  -3.911900  19.017000  -0.467062
                CHANNELS 3 Zrotation Xrotation Yrotation
                JOINT RightShoulder
                {
                    OFFSET -10.383700   0.000015   0.000000
                    CHANNELS 3 Zrotation Xrotation Yrotation
                    JOINT RightElbow
                    {
                        OFFSET -26.662100   0.001341   0.000385
                        CHANNELS 3 Zrotation Xrotation Yrotation
                        JOINT RightWrist
                        {
                            OFFSET -28.869000   0.000025  -0.000080
                            CHANNELS 3 Zrotation Xrotation Yrotation
                            JOINT RightFinger0
                            {
                                OFFSET  -2.044650  -2.323490   3.252850
                                CHANNELS 3 Zrotation Xrotation Yrotation
                                JOINT RightFinger01
                                {
                                    OFFSET  -3.088130   0.000000   0.000000
                                    CHANNELS 3 Zrotation Xrotation Yrotation
                                    JOINT RightFinger02
                                    {
                                        OFFSET  -2.639460   0.000000   0.000000
                                        CHANNELS 3 Zrotation Xrotation Yrotation
                                        End Site
                                        {
                                            OFFSET  -2.582190   0.000000   0.000000
                                        }
                                    }
                                }
                            }
                            JOINT RightFinger1
                            {
                                OFFSET  -8.364480   0.000000   3.252850
                                CHANNELS 3 Zrotation Xrotation Yrotation
                                JOINT RightFinger11
                                {
                                    OFFSET  -4.646930   0.000000   0.000000
                                    CHANNELS 3 Zrotation Xrotation Yrotation
                                    JOINT RightFinger12
                                    {
                                        OFFSET  -2.323470   0.000000   0.000000
                                        CHANNELS 3 Zrotation Xrotation Yrotation
                                        End Site
                                        {
                                            OFFSET  -2.273050   0.000000   0.000000
                                        }
                                    }
                                }
                            }
                            JOINT RightFinger2
                            {
                                OFFSET  -8.364480   0.000000   1.078090
                                CHANNELS 3 Zrotation Xrotation Yrotation
                                JOINT RightFinger21
                                {
                                    OFFSET  -5.111610   0.000000   0.000000
                                    CHANNELS 3 Zrotation Xrotation Yrotation
                                    JOINT RightFinger22
                                    {
                                        OFFSET  -2.788160   0.000000   0.000000
                                        CHANNELS 3 Zrotation Xrotation Yrotation
                                        End Site
                                        {
                                            OFFSET  -2.727660   0.000000   0.000000
                                        }
                                    }
                                }
                            }
                            JOINT RightFinger3
                            {
                                OFFSET  -7.899780   0.000000  -1.078090
                                CHANNELS 3 Zrotation Xrotation Yrotation
                                JOINT RightFinger31
                                {
                                    OFFSET  -4.646920   0.000000   0.000000
                                    CHANNELS 3 Zrotation Xrotation Yrotation
                                    JOINT RightFinger32
                                    {
                                        OFFSET  -2.323470   0.000000   0.000000
                                        CHANNELS 3 Zrotation Xrotation Yrotation
                                        End Site
                                        {
                                            OFFSET  -2.273050   0.000000   0.000000
                                        }
                                    }
                                }
                            }
                            JOINT RightFinger4
                            {
                                OFFSET  -7.435090   0.000000  -3.252850
                                CHANNELS 3 Zrotation Xrotation Yrotation
                                JOINT RightFinger41
                                {
                                    OFFSET  -3.717550   0.000000   0.000000
                                    CHANNELS 3 Zrotation Xrotation Yrotation
                                    JOINT RightFinger42
                                    {
                                        OFFSET  -1.858770   0.000000   0.000000
                                        CHANNELS 3 Zrotation Xrotation Yrotation
                                        End Site
                                        {
                                            OFFSET  -1.818440   0.000000   0.000000
                                        }
                                    }
                                }
                            }
                        }
                    }
                }
            }
        }
    }
    JOINT LeftHip
    {
        OFFSET   9.783010   0.000000   0.000000
        CHANNELS 3 Zrotation Xrotation Yrotation
        JOINT LeftKnee
        {
            OFFSET   0.000070 -41.789100   0.000028
            CHANNELS 3 Zrotation Xrotation Yrotation
            JOINT LeftAnkle
            {
                OFFSET   0.000087 -41.133200  -0.000100
                CHANNELS 3 Zrotation Xrotation Yrotation
                JOINT LeftToe
                {
                    OFFSET   0.000000  -6.358960  14.674500
                    CHANNELS 3 Zrotation Xrotation Yrotation
                    End Site
                    {
                        OFFSET   0.000000   0.000000   3.913200
                    }
                }
            }
        }
    }
    JOINT RightHip
    {
        OFFSET  -9.783020   0.000000   0.000000
        CHANNELS 3 Zrotation Xrotation Yrotation
        JOINT RightKnee
        {
            OFFSET   0.000044 -41.789100  -0.000870
            CHANNELS 3 Zrotation Xrotation Yrotation
            JOINT RightAnkle
            {
                OFFSET  -0.000090 -41.133200  -0.000245
                CHANNELS 3 Zrotation Xrotation Yrotation
                JOINT RightToe
                {
                    OFFSET   0.000000  -6.358960  14.674500
                    CHANNELS 3 Zrotation Xrotation Yrotation
                    End Site
                    {
                        OFFSET   0.000000   0.000000   3.913200
                    }
                }
            }
        }
    }
}
MOTION
Frames: 4
Frame Time:   0.016667
  1.788240  90.112600   3.537740  -1.609270  -1.557700  -0.555200   0.274204   2.160710  -0.519833   0.568649   4.318810  -1.051140   1.771790  -0.733229   0.033573   2.916460  -1.482920   3.355850  -3.263020  -0.383233   3.279900 -73.020400  20.454000   0.274343  -3.988820  -6.215160 -14.539200  14.974100   1.573940   9.992650  42.805000  29.564300 -67.433400 -19.928200  -0.007592  -0.002729  -4.970460  -0.003671  -0.003094 -27.941600   8.520780 -15.607700 -23.818500   0.003670  -0.002545 -16.688100  -0.006679   0.000548 -29.437200   3.383220  -5.953060 -44.420700   0.004745   0.007594 -29.584200  -0.001003   0.005470 -27.936200   3.226690  -6.039150 -32.754100   0.004519   0.002006 -21.814300   0.007319   0.002653 -32.341800   0.818205  -1.287510 -48.526500   0.000000   0.001855 -32.318700   0.000080   0.008603  11.028400   1.862720   6.122100  66.223800  12.342200  -5.298500   3.276290  -7.071150  12.204600 -18.369100 -19.673700   0.994974 -34.012700  29.220300  63.530300  36.020100   0.001923  -0.001312  13.010000   0.002273  -0.003485  32.547100   1.742150   2.725150  26.663500  -0.004133   0.002327  18.664400   0.002776   0.002053  28.336400  -4.012080  -7.392750  37.344700  -0.005202   0.009737  24.871600   0.000984   0.008854  23.645400  -3.391440  -7.695810  23.873600  -0.005709   0.002113  15.899800  -0.003420   0.005218  33.550500  -8.739340 -12.897200  51.811300  -0.005961  -0.005495  34.506300   0.005005  -0.004087   0.105418   3.059810   1.906880   0.251009   0.102752  13.297600  -3.992230  -4.018280   5.046170  -0.000000   0.000000   0.000000   2.070800   2.472310  -9.353100  -0.720991   2.731960 -11.422900  -8.788240   0.395260  -0.247169  -0.000000   0.000000   0.000000
  1.779790  90.112400   3.532670  -1.609700  -1.578860  -0.563184   0.274341   2.200170  -0.514519   0.569212   4.397760  -1.040750   1.771930  -0.754220   0.033492   2.916570  -1.525300   3.365820  -3.261750  -0.442211   3.276590 -72.985100  20.503800   0.250072  -3.995310  -6.232830 -14.555900  14.975400   1.564210  10.006900  42.811200  29.583500 -67.459400 -19.931300  -0.007616  -0.002702  -4.970460  -0.003683  -0.003092 -27.943900   8.531290 -15.623500 -23.822700   0.003675  -0.002535 -16.688300  -0.006684   0.000557 -29.436300   3.383660  -5.957830 -44.419800   0.004747   0.007595 -29.583600  -0.001002   0.005472 -27.936300   3.227050  -6.043900 -32.750400   0.004526   0.002013 -21.811800   0.007321   0.002662 -32.335500   0.818204  -1.288460 -48.517100   0.000000   0.001851 -32.312500   0.000089   0.008604  11.063200   1.702250   6.167990  66.280800  12.369000  -5.296550   3.314470  -7.080810  12.141500 -18.449800 -19.586300   0.992935 -34.065700  29.379100  63.588300  36.100100   0.001919  -0.001312  13.050000   0.002271  -0.003486  32.459600   1.579070   2.494190  26.586400  -0.004078   0.002268  18.610400   0.002768   0.002006  28.323900  -4.020240  -7.410550  37.161500  -0.004916   0.009658  24.749500   0.000924   0.008772  23.503400  -3.382230  -7.721690  23.731900  -0.005475   0.001969  15.805400  -0.003308   0.005341  33.481100  -8.737430 -12.947600  51.703400  -0.005951  -0.005579  34.434500   0.004987  -0.004149   0.104711   3.070050   1.919470   0.246799   0.125106  13.286000  -4.001940  -4.028420   5.051940  -0.000000   0.000000   0.000000   2.067880   2.479250  -9.345500  -0.710908   2.758180 -11.418600  -8.795100   0.376856  -0.254494  -0.000000   0.000000   0.000000
  1.764220  90.112200   3.523080  -1.610880  -1.633280  -0.585841   0.274446   2.285990  -0.500735   0.569570   4.569460  -1.013640   1.772080  -0.805829   0.033398   2.915810  -1.629510   3.378040  -3.261740  -0.559814   3.253320 -72.904200  20.600300   0.208321  -4.007860  -6.267400 -14.586600  14.976800   1.552570  10.026400  42.824300  29.632000 -67.525600 -19.940900  -0.007672  -0.002675  -4.970450  -0.003713  -0.003089 -27.949200   8.541790 -15.639300 -23.829000   0.003690  -0.002506 -16.688400  -0.006694   0.000577 -29.432600   3.384100  -5.962600 -44.413700   0.004755   0.007601 -29.579600  -0.001001   0.005480 -27.936300   3.227420  -6.048660 -32.736800   0.004541   0.002034 -21.802700   0.007327   0.002682 -32.318000   0.818202  -1.293130 -48.490900   0.000000   0.001839 -32.295000   0.000111   0.008612  11.113900   1.398490   6.213520  66.439900  12.509300  -5.282020   3.453320  -7.138390  12.079600 -18.917100 -19.359700   0.981078 -34.099200  29.684800  63.816400  36.228600   0.001916  -0.001312  13.114300   0.002268  -0.003489  32.370700   1.415910   2.263290  26.509200  -0.004023   0.002169  18.556400   0.002750   0.001928  28.311400  -4.028390  -7.428350  36.978200  -0.004630   0.009580  24.627500   0.000803   0.008690  23.361400  -3.373020  -7.747560  23.590100  -0.005241   0.001825  15.711000  -0.003197   0.005514  33.333400  -8.734440 -12.997900  51.495100  -0.005931  -0.005721  34.295800   0.004950  -0.004252   0.104319   3.112450   1.940320   0.242640   0.147473  13.257500  -4.018320  -4.038420   5.079660  -0.000000   0.000000  -0.000000   2.062680   2.502310  -9.323630  -0.693218   2.814040 -11.411100  -8.806220   0.343378  -0.267899  -0.000000   0.000000   0.000000
  1.748510  90.112100   3.513500  -1.616120  -1.713040  -0.619224   0.271494   2.396170  -0.479802   0.563695   4.789940  -0.972230   1.771800  -0.882737   0.033383   2.915380  -1.784750   3.379740  -3.264010  -0.705108   3.165640 -72.800900  20.702400   0.178774  -4.031230  -6.297640 -14.616200  14.972200   1.550340  10.032300  42.845400  29.712000 -67.636800 -19.955700  -0.007749  -0.002727  -4.976210  -0.003755  -0.003101 -27.954900   8.540880 -15.635000 -23.833200   0.003716  -0.002453 -16.687400  -0.006705   0.000596 -29.424300   3.381740  -5.962550 -44.400300   0.004771   0.007612 -29.570700  -0.001000   0.005492 -27.935000   3.225400  -6.048480 -32.714800   0.004563   0.002066 -21.788100   0.007336   0.002707 -32.291600   0.822315  -1.302520 -48.451500   0.000000   0.001816 -32.268800   0.000140   0.008629  11.094800   1.060300   6.099820  66.684400  12.832000  -5.132370   3.771440  -7.411220  12.114500 -19.912300 -18.956900   0.919950 -34.029500  29.970100  64.362000  36.342500   0.001916  -0.001313  13.171300   0.002263  -0.003504  32.471300   1.662950   2.639690  26.595700  -0.004148   0.002070  18.617000   0.002723   0.001849  28.345200  -4.023860  -7.409280  37.134800  -0.006739   0.009600  24.731800   0.000645   0.008710  23.539300  -3.397800  -7.717860  23.803900  -0.005300   0.001861  15.834800  -0.003224   0.005587  33.217600  -8.564030 -12.788500  51.274000  -0.005906  -0.005864  34.148500   0.004900  -0.004357   0.113370   3.157940   1.957330   0.238983   0.144196  13.212600  -4.034370  -4.037910   5.137540  -0.000000   0.000000  -0.000000   2.057000   2.542620  -9.284500  -0.677184   2.883570 -11.408100  -8.814370   0.310439  -0.284891  -0.000000   0.000000  -0.000000
